<?xml version="1.0" standalone="no"?>
<!DOCTYPE svg PUBLIC "-//W3C//DTD SVG 1.1//EN" "http://www.w3.org/Graphics/SVG/1.1/DTD/svg11.dtd" >
<svg xmlns="http://www.w3.org/2000/svg">
<metadata></metadata>
<defs>
<font id="simplon_bpregular" horiz-adv-x="1159" >
<font-face units-per-em="2048" ascent="1671" descent="-377" />
<missing-glyph horiz-adv-x="460" />
<glyph unicode="&#xfb01;" horiz-adv-x="1110" d="M57 909h150v-909h153v909h261v148h-261v137q0 51 21.5 71.5t77.5 20.5h162v148h-162q-147 0 -199.5 -58.5t-52.5 -193.5v-125h-150v-148zM803 0h153v1057h-153v-1057zM803 1235h153v199h-153v-199z" />
<glyph unicode="&#xfb02;" horiz-adv-x="1169" d="M57 909h150v-909h153v909h261v148h-261v137q0 51 21.5 71.5t77.5 20.5h162v148h-162q-147 0 -199.5 -58.5t-52.5 -193.5v-125h-150v-148zM799 252v1182h153v-1194q0 -51 21.5 -72t77.5 -21h32v-147h-32q-147 0 -199.5 58.5t-52.5 193.5z" />
<glyph unicode="&#xfb03;" horiz-adv-x="1759" d="M57 909h150v-909h153v909h261v148h-261v137q0 51 21.5 71.5t77.5 20.5h162v148h-162q-147 0 -199.5 -58.5t-52.5 -193.5v-125h-150v-148zM707 909h149v-909h154v909h260v148h-260v137q0 51 21.5 71.5t76.5 20.5h162v148h-162q-147 0 -199.5 -58.5t-52.5 -193.5v-125h-149 v-148zM1452 0h154v1057h-154v-1057zM1452 1235h154v199h-154v-199z" />
<glyph unicode="&#xfb04;" horiz-adv-x="1818" d="M57 909h150v-909h153v909h261v148h-261v137q0 51 21.5 71.5t77.5 20.5h162v148h-162q-147 0 -199.5 -58.5t-52.5 -193.5v-125h-150v-148zM707 909h149v-909h154v909h260v148h-260v137q0 51 21.5 71.5t76.5 20.5h162v148h-162q-147 0 -199.5 -58.5t-52.5 -193.5v-125h-149 v-148zM1448 252v1182h154v-1194q0 -51 21.5 -72t76.5 -21h33v-147h-33q-147 0 -199.5 58.5t-52.5 193.5z" />
<glyph horiz-adv-x="2048" />
<glyph horiz-adv-x="2048" />
<glyph unicode="&#xd;" horiz-adv-x="2048" />
<glyph unicode=" "  horiz-adv-x="460" />
<glyph unicode="&#x09;" horiz-adv-x="460" />
<glyph unicode="&#xa0;" horiz-adv-x="460" />
<glyph unicode="!" horiz-adv-x="563" d="M174 0h215v215h-215v-215zM205 430h153v1004h-153v-1004z" />
<glyph unicode="&#x22;" horiz-adv-x="827" d="M164 975h153v459h-153v-459zM510 975h154v459h-154v-459z" />
<glyph unicode="#" horiz-adv-x="1433" d="M170 422h141l-104 -422h139l105 422h385l-105 -422h139l105 422h209v133h-176l79 324h179v133h-146l107 422h-140l-106 -422h-385l106 422h-139l-106 -422h-207v-133h174l-80 -324h-174v-133zM483 555l80 324h385l-80 -324h-385z" />
<glyph unicode="$" horiz-adv-x="1032" d="M84 424q14 -193 122.5 -310.5t274.5 -131.5v-187h88v187q190 12 278.5 118.5t88.5 253.5q0 137 -70.5 245t-208.5 159l-88 33v512q78 -12 131.5 -72t65.5 -160h152q-8 168 -108.5 267.5t-240.5 113.5v186h-88v-186q-190 -14 -281 -127t-91 -250q0 -147 74.5 -241.5 t209.5 -145.5l88 -33v-526q-100 14 -163.5 93t-79.5 202h-154zM262 1077q0 86 51.5 150.5t167.5 77.5v-482l-51 19q-66 25 -117 78t-51 157zM569 129v494l43 -17q92 -33 131 -104.5t39 -147.5q0 -102 -56 -159.5t-157 -65.5z" />
<glyph unicode="%" horiz-adv-x="1720" d="M139 848q0 -154 90 -206t168 -52q80 0 170 52t90 206v340q0 154 -90 206t-170 52q-78 0 -168 -52.5t-90 -205.5v-340zM272 852v332q0 70 34 101.5t91 31.5t92 -32t35 -101v-332q0 -70 -34.5 -101.5t-92.5 -31.5q-57 0 -91 31.5t-34 101.5zM295 0h145l985 1434h-145z M1063 246q0 -154 90 -206t168 -52q80 0 170 52t90 206v340q0 154 -90 206t-170 52q-78 0 -168 -52.5t-90 -205.5v-340zM1196 250v332q0 70 34 101.5t91 31.5t92 -32t35 -101v-332q0 -70 -35 -101.5t-92 -31.5t-91 31.5t-34 101.5z" />
<glyph unicode="&#x26;" horiz-adv-x="1214" d="M111 395q0 -209 124.5 -302t278.5 -93h424v647h260v148h-260v163h-154v-163h-270q-104 0 -177 64.5t-73 180.5q0 117 73 181.5t177 64.5h270v148h-270q-154 0 -278.5 -90.5t-124.5 -303.5q0 -115 51 -198.5t123 -120.5q-72 -39 -123 -127t-51 -199zM264 397 q0 115 66.5 182.5t183.5 67.5h270v-500h-270q-117 0 -183.5 68t-66.5 182z" />
<glyph unicode="'" horiz-adv-x="481" d="M164 975h153v459h-153v-459z" />
<glyph unicode="(" horiz-adv-x="561" d="M197 18v1164q0 135 52 193.5t200 58.5h32v-131h-45q-63 0 -84.5 -26t-21.5 -79v-1196q0 -53 21.5 -78.5t84.5 -25.5h45v-131h-32q-147 0 -199.5 58t-52.5 193z" />
<glyph unicode=")" horiz-adv-x="561" d="M80 -102v-131h33q147 0 199.5 58t52.5 193v1164q0 135 -52.5 193.5t-199.5 58.5h-33v-131h45q63 0 84.5 -26t21.5 -79v-1196q0 -53 -21.5 -78.5t-84.5 -25.5h-45z" />
<glyph unicode="*" horiz-adv-x="972" d="M137 1133l41 124l242 -77v254h133v-254l242 77l41 -124l-242 -80l149 -205l-106 -78l-150 205l-151 -205l-107 78l150 205z" />
<glyph unicode="+" horiz-adv-x="1142" d="M158 508h352v-348h133v348h342v133h-342v346h-133v-346h-352v-133z" />
<glyph unicode="," horiz-adv-x="563" d="M174 0h84l-72 -193h131l72 193v215h-215v-215z" />
<glyph unicode="-" horiz-adv-x="819" d="M113 508h594v133h-594v-133z" />
<glyph unicode="." horiz-adv-x="563" d="M174 0h215v215h-215v-215z" />
<glyph unicode="/" horiz-adv-x="706" d="M-10 0h147l580 1434h-148z" />
<glyph unicode="0" horiz-adv-x="1089" d="M131 393q0 -231 133 -322t281 -91q147 0 280 91t133 322v647q0 231 -133 322.5t-280 91.5t-280.5 -91t-133.5 -323v-647zM285 391v651q0 131 78.5 198t181.5 67q102 0 181 -66.5t79 -198.5v-651q0 -131 -79 -197.5t-181 -66.5t-181 66.5t-79 197.5z" />
<glyph unicode="1" horiz-adv-x="698" d="M96 1004l275 235v-1239h153v1434h-153l-275 -236v-194z" />
<glyph unicode="2" horiz-adv-x="1034" d="M98 0h828v147h-629l420 463q94 102 151.5 205t57.5 232q0 225 -133.5 316t-280.5 91t-280.5 -91t-133.5 -323v-36h154v38q0 131 79 198t181 67t181 -66.5t79 -191.5q0 -94 -48 -180.5t-116 -159.5l-510 -562v-147z" />
<glyph unicode="3" horiz-adv-x="1046" d="M96 393v17h154v-19q0 -131 82 -197.5t188 -66.5q111 0 180.5 66.5t69.5 187.5q0 102 -66.5 184t-183.5 82h-102v148h102q104 0 177 67.5t73 190.5q0 119 -78 186.5t-182 67.5q-102 0 -181 -66.5t-79 -198.5v-18h-154v16q0 231 133 322.5t281 91.5q154 0 284 -94t130 -307 q0 -119 -51.5 -207t-122.5 -125q72 -39 123 -128t51 -212q0 -213 -128 -307t-276 -94q-152 0 -288 91t-136 322z" />
<glyph unicode="4" horiz-adv-x="1048" d="M31 387h657v-387h154v387h149v143h-149v904h-154l-657 -904v-143zM207 530l481 660v-660h-481z" />
<glyph unicode="5" horiz-adv-x="1048" d="M131 393q0 -231 133 -322t281 -91q147 0 280 91t133 322v103q0 231 -133 322t-280 91q-63 0 -130 -21.5t-112 -60.5v459h600v148h-753v-828h153q29 78 96.5 117t145.5 39q102 0 181 -66.5t79 -197.5v-107q0 -131 -79 -197.5t-181 -66.5t-181 66.5t-79 197.5v19h-154v-17z " />
<glyph unicode="6" horiz-adv-x="1077" d="M131 393q0 -231 133 -322t281 -91q147 0 280 91t133 322v88q0 231 -133 322.5t-280 91.5q-72 0 -146.5 -27.5t-113.5 -72.5v247q0 131 78.5 198t181.5 67q102 0 181 -66.5t79 -198.5v-18h153v16q0 231 -133 322.5t-280 91.5t-280.5 -91t-133.5 -323v-647zM285 391v92 q0 131 78.5 198t181.5 67q102 0 181 -67t79 -198v-92q0 -131 -79 -197.5t-181 -66.5t-181 66.5t-79 197.5z" />
<glyph unicode="7" horiz-adv-x="901" d="M37 1286h653l-452 -1286h161l453 1286v148h-815v-148z" />
<glyph unicode="8" horiz-adv-x="1073" d="M123 387q0 113 42 197t126 137q-70 55 -112 134t-42 196q0 211 125 307t275 96t274.5 -96t124.5 -307q0 -117 -42 -196t-112 -134q84 -53 126 -137t42 -197q0 -209 -128 -308t-285 -99q-158 0 -286 99t-128 308zM276 387q0 -119 79 -189.5t182 -70.5q102 0 181 70.5 t79 189.5t-79 190.5t-181 71.5t-181.5 -71.5t-79.5 -190.5zM291 1051q0 -127 72.5 -191.5t173.5 -64.5q100 0 172.5 64.5t72.5 191.5q0 111 -64.5 183.5t-180.5 72.5q-117 0 -181.5 -73t-64.5 -183z" />
<glyph unicode="9" horiz-adv-x="1077" d="M119 393q0 -231 133 -322t280 -91t280.5 91t133.5 322v647q0 231 -133 322.5t-281 91.5q-147 0 -280 -91t-133 -323v-88q0 -231 133 -322t280 -91q72 0 147 27.5t114 72.5v-248q0 -131 -79 -197.5t-182 -66.5q-102 0 -181 66.5t-79 197.5v19h-153v-17zM272 950v92 q0 131 79 198t181 67t181.5 -66.5t79.5 -198.5v-92q0 -131 -79 -197.5t-182 -66.5q-102 0 -181 66.5t-79 197.5z" />
<glyph unicode=":" horiz-adv-x="563" d="M174 0h215v215h-215v-215zM174 842h215v215h-215v-215z" />
<glyph unicode=";" horiz-adv-x="563" d="M174 0h84l-72 -193h131l72 193v215h-215v-215zM174 842h215v215h-215v-215z" />
<glyph unicode="&#x3c;" horiz-adv-x="1142" d="M158 455l827 -465v153l-688 387l688 388v153l-827 -465v-151z" />
<glyph unicode="=" horiz-adv-x="1142" d="M158 287h827v133h-827v-133zM158 707h827v133h-827v-133z" />
<glyph unicode="&#x3e;" horiz-adv-x="1142" d="M158 -10v153l688 387l-688 388v153l827 -465v-151z" />
<glyph unicode="?" horiz-adv-x="1028" d="M86 1024h154v18q0 131 78.5 198t181.5 67q102 0 181 -66.5t79 -198.5q0 -70 -33 -126t-63 -85l-123 -112q-61 -57 -90 -108.5t-29 -135.5v-45h153v45q0 45 15.5 76t58.5 70l123 112q53 49 97 133t44 174q0 231 -133 322.5t-280 91.5t-280.5 -91t-133.5 -323v-16zM393 0 h215v215h-215v-215z" />
<glyph unicode="@" horiz-adv-x="1818" d="M143 303q0 -307 222.5 -503.5t543.5 -196.5q131 0 250 34.5t213 98.5l-72 114q-82 -57 -183 -86.5t-208 -29.5q-252 0 -442.5 159.5t-190.5 409.5v451q0 250 190.5 409.5t442.5 159.5t442.5 -159.5t190.5 -409.5v-527q0 -53 -29.5 -84.5t-78.5 -31.5t-80 31.5t-31 84.5 v445q0 231 -133 322t-281 91q-137 0 -264 -77.5t-147 -274.5h157q18 102 91 153.5t163 51.5q102 0 181 -66.5t79 -197.5v-19q-133 -8 -246.5 -20t-203.5 -39q-137 -39 -183.5 -131t-46.5 -172q0 -162 108 -237.5t243 -75.5q106 0 192 31.5t137 97.5q33 -57 96.5 -93 t168.5 -36q111 0 176 59t65 178v537q0 307 -222 503.5t-544 196.5t-544 -196.5t-222 -503.5v-451zM643 297q0 45 17.5 82t74.5 70q53 29 157.5 43t276.5 26v-137q0 -123 -87 -188.5t-210 -65.5q-117 0 -173 49t-56 121z" />
<glyph unicode="A" d="M29 0h159l131 403h521l131 -403h159l-460 1434h-181zM367 549l213 665l213 -665h-426z" />
<glyph unicode="B" horiz-adv-x="1185" d="M164 0h512q229 0 321.5 127t92.5 274q0 98 -47.5 190.5t-145.5 141.5q70 43 114 123t44 184q0 141 -93.5 267.5t-320.5 126.5h-477v-1434zM322 156v491h354q117 0 185.5 -65.5t68.5 -180.5t-68.5 -180t-185.5 -65h-354zM322 803v475h319q121 0 187.5 -67.5t66.5 -170.5 q0 -102 -66.5 -169.5t-187.5 -67.5h-319z" />
<glyph unicode="C" horiz-adv-x="1144" d="M121 465q0 -225 129 -355t334 -130q197 0 322.5 118.5t137.5 325.5h-157q-12 -141 -98.5 -215t-204.5 -74q-127 0 -216 84t-89 246v504q0 162 89 245.5t216 83.5q119 0 204.5 -73.5t98.5 -214.5h157q-12 207 -138 325.5t-322 118.5q-205 0 -334 -130t-129 -355v-504z" />
<glyph unicode="D" horiz-adv-x="1210" d="M164 0h463q205 0 334 130t129 355v463q0 225 -129.5 355.5t-333.5 130.5h-463v-1434zM322 156v1122h305q127 -2 216 -85t89 -245v-463q0 -162 -89 -245.5t-216 -83.5h-305z" />
<glyph unicode="E" horiz-adv-x="1110" d="M164 0h815v156h-657v491h657v156h-657v475h657v156h-815v-1434z" />
<glyph unicode="F" horiz-adv-x="1089" d="M164 0h158v647h657v156h-657v475h657v156h-815v-1434z" />
<glyph unicode="G" d="M121 465q0 -225 129 -355t334 -130t334 130t129 355v297h-463v-156h305v-141q0 -162 -89 -246t-216 -84t-216 84t-89 246v504q0 162 89 245.5t216 83.5q119 0 204.5 -73.5t98.5 -214.5h157q-12 207 -138 325.5t-322 118.5q-205 0 -334 -130t-129 -355v-504z" />
<glyph unicode="H" horiz-adv-x="1253" d="M164 0h158v647h610v-647h158v1434h-158v-631h-610v631h-158v-1434z" />
<glyph unicode="I" horiz-adv-x="485" d="M164 0h158v1434h-158v-1434z" />
<glyph unicode="J" horiz-adv-x="968" d="M29 393q0 -229 127 -321t270 -92t270 92t127 321v1041h-157v-1041q0 -117 -70 -187.5t-170 -70.5t-170 70.5t-70 187.5v17h-157v-17z" />
<glyph unicode="K" horiz-adv-x="1249" d="M164 0h158v422l253 299l476 -721h186l-557 844l504 590h-201l-661 -779v779h-158v-1434z" />
<glyph unicode="L" horiz-adv-x="1009" d="M164 0h815v156h-657v1278h-158v-1434z" />
<glyph unicode="M" horiz-adv-x="1470" d="M164 0h155v1102l343 -717h147l342 717v-1102h156v1434h-158l-414 -869l-413 869h-158v-1434z" />
<glyph unicode="N" horiz-adv-x="1253" d="M164 0h158v1128l610 -1128h158v1434h-158v-1129l-610 1129h-158v-1434z" />
<glyph unicode="O" horiz-adv-x="1167" d="M121 465q0 -225 129 -355t334 -130t334 130t129 355v504q0 225 -129.5 355t-333.5 130q-205 0 -334 -130t-129 -355v-504zM279 465v504q0 162 89 245.5t216 83.5t216 -84t89 -245v-504q0 -162 -89 -246t-216 -84t-216 84t-89 246z" />
<glyph unicode="P" horiz-adv-x="1148" d="M164 0h158v557h305q248 0 355.5 124t107.5 314t-108 314.5t-355 124.5h-463v-1434zM322 713v565h305q166 0 233.5 -83t67.5 -200t-67.5 -199.5t-233.5 -82.5h-305z" />
<glyph unicode="Q" horiz-adv-x="1189" d="M121 465q0 -225 129 -355t334 -130q82 0 154.5 21.5t129.5 64.5l154 -158l104 102l-159 162q39 57 59.5 131t20.5 162v504q0 225 -129.5 355t-333.5 130q-205 0 -334 -130t-129 -355v-504zM279 465v504q0 162 89 245.5t216 83.5t216 -84t89 -245v-504q0 -51 -10.5 -95 t-26.5 -79l-156 158l-102 -103l160 -164q-35 -23 -79 -35t-91 -12q-127 0 -216 84t-89 246z" />
<glyph unicode="R" horiz-adv-x="1171" d="M164 0v1434h487q227 0 320.5 -126t93.5 -268q0 -129 -76 -245.5t-260 -141.5l383 -653h-182l-381 649h-227v-649h-158zM322 801h329q121 0 187.5 68.5t66.5 170.5t-66.5 170t-187.5 68h-329v-477z" />
<glyph unicode="S" horiz-adv-x="1058" d="M74 424q14 -205 142 -324.5t323 -119.5q213 0 323.5 105t110.5 277q0 170 -91 268.5t-243 141.5l-168 47q-111 31 -162 93.5t-51 160.5q0 94 67.5 159.5t196.5 65.5q115 0 181.5 -62t89.5 -165h161q-23 182 -135 282.5t-297 100.5q-172 0 -298 -98.5t-126 -282.5 q0 -129 71 -245.5t230 -161.5l183 -52q121 -33 176 -94t55 -158q0 -113 -77 -170t-197 -57q-115 0 -200 76t-103 213h-162z" />
<glyph unicode="T" horiz-adv-x="980" d="M29 1278h383v-1278h157v1278h383v156h-923v-156z" />
<glyph unicode="U" horiz-adv-x="1216" d="M145 465q0 -225 129 -355t334 -130t334 130t129 355v969h-158v-969q0 -162 -89 -246t-216 -84t-216 84t-89 246v969h-158v-969z" />
<glyph unicode="V" d="M29 1434l460 -1434h181l460 1434h-159l-391 -1215l-392 1215h-159z" />
<glyph unicode="W" horiz-adv-x="1486" d="M55 1434h156l203 -1119l254 914h151l254 -914l203 1119h156l-265 -1434h-151l-273 981l-272 -981h-152z" />
<glyph unicode="X" horiz-adv-x="1155" d="M37 0h180l361 623l360 -623h180l-434 741l403 693h-174l-335 -580l-336 580h-174l403 -693z" />
<glyph unicode="Y" horiz-adv-x="1116" d="M6 1434h172l381 -695l379 695h172l-473 -865v-569h-158v571z" />
<glyph unicode="Z" horiz-adv-x="1099" d="M80 0h936v156h-752l742 1122v156h-916v-156h731l-741 -1122v-156z" />
<glyph unicode="[" horiz-adv-x="561" d="M197 -233v1667h284v-131h-151v-1405h151v-131h-284z" />
<glyph unicode="\" horiz-adv-x="706" d="M-10 1434h147l580 -1434h-148z" />
<glyph unicode="]" horiz-adv-x="561" d="M80 -102v-131h285v1667h-285v-131h151v-1405h-151z" />
<glyph unicode="^" horiz-adv-x="1261" d="M133 614h154l344 662l344 -662h153l-426 820h-143z" />
<glyph unicode="_" horiz-adv-x="827" d="M0 -123v-133h827v133h-827z" />
<glyph unicode="`" horiz-adv-x="622" d="M109 1434h221l157 -265h-137z" />
<glyph unicode="a" horiz-adv-x="1079" d="M106 293q0 -162 108 -237.5t243 -75.5q106 0 192 31.5t137 97.5v-109h154v672q0 231 -133 322t-281 91q-137 0 -264 -77.5t-147 -274.5h157q18 102 91 153.5t163 51.5q102 0 181 -66.5t79 -197.5v-19q-133 -8 -246.5 -20t-203.5 -39q-137 -39 -183.5 -131t-46.5 -172z M260 297q0 45 17.5 82t74.5 70q53 29 157.5 43t276.5 26v-137q0 -123 -87 -188.5t-210 -65.5q-117 0 -173 49t-56 121z" />
<glyph unicode="b" horiz-adv-x="1105" d="M154 0h153v109q39 -63 114 -96t146 -33q147 0 280.5 91t133.5 322v279q0 231 -133 322t-281 91q-72 0 -146.5 -32.5t-113.5 -96.5v478h-153v-1434zM307 391v283q0 131 79 197.5t181 66.5t181 -66.5t79 -197.5v-283q0 -131 -78.5 -197.5t-181.5 -66.5q-102 0 -181 66.5 t-79 197.5z" />
<glyph unicode="c" horiz-adv-x="1054" d="M125 393q0 -233 133 -323t281 -90q139 0 267 79.5t144 282.5h-155q-14 -106 -89 -160.5t-167 -54.5q-102 0 -181 66.5t-79 197.5v283q0 131 78.5 197.5t181.5 66.5q92 0 166.5 -54.5t89.5 -160.5h155q-16 203 -144 282.5t-267 79.5q-147 0 -280.5 -91t-133.5 -322v-279z " />
<glyph unicode="d" horiz-adv-x="1105" d="M125 393v279q0 231 133 322t281 91q72 0 146.5 -32.5t113.5 -96.5v478h153v-1434h-153v109q-39 -63 -114 -96t-146 -33q-147 0 -280.5 91t-133.5 322zM279 391q0 -131 78.5 -197.5t181.5 -66.5q102 0 181 66.5t79 197.5v283q0 131 -79 197.5t-181 66.5t-181 -66.5 t-79 -197.5v-283z" />
<glyph unicode="e" horiz-adv-x="1067" d="M125 393q0 -231 133 -322t281 -91q137 0 264 77.5t147 274.5h-157q-18 -102 -91 -153.5t-163 -51.5q-102 0 -181 66.5t-79 197.5v103h673v178q0 231 -133 322t-280 91t-280.5 -91t-133.5 -322v-279zM279 635v39q0 131 78.5 197.5t181.5 66.5q102 0 181 -66.5t79 -197.5 v-39h-520z" />
<glyph unicode="f" horiz-adv-x="649" d="M57 909h150v-909h153v909h261v148h-261v137q0 51 21.5 71.5t77.5 20.5h162v148h-162q-147 0 -199.5 -58.5t-52.5 -193.5v-125h-150v-148z" />
<glyph unicode="g" horiz-adv-x="1103" d="M123 434q0 -231 133 -322.5t281 -91.5q72 0 146.5 33t113.5 97v-136q0 -131 -79 -197.5t-181 -66.5q-92 0 -167 54.5t-89 160.5h-156q16 -203 144 -282.5t268 -79.5q147 0 280 90t133 323v1041h-153v-101q-39 63 -114 96t-146 33q-147 0 -280.5 -91t-133.5 -322v-238z M276 432v242q0 131 79 197.5t182 66.5q102 0 181 -66.5t79 -197.5v-242q0 -131 -79 -197.5t-181 -66.5t-181.5 66.5t-79.5 197.5z" />
<glyph unicode="h" horiz-adv-x="1120" d="M154 0h153v674q0 131 79 197.5t181 66.5t181 -66.5t79 -197.5v-674h154v672q0 231 -133 322t-281 91q-72 0 -146.5 -32.5t-113.5 -96.5v478h-153v-1434z" />
<glyph unicode="i" horiz-adv-x="460" d="M154 0h153v1057h-153v-1057zM154 1235h153v199h-153v-199z" />
<glyph unicode="j" horiz-adv-x="460" d="M23 -229v-148h32q147 0 199.5 58.5t52.5 193.5v1182h-153v-1194q0 -51 -21.5 -71.5t-77.5 -20.5h-32zM154 1235h153v199h-153v-199z" />
<glyph unicode="k" horiz-adv-x="1034" d="M154 0h153v350l166 180l361 -530h180l-436 643l380 414h-190l-461 -500v877h-153v-1434z" />
<glyph unicode="l" horiz-adv-x="520" d="M150 252v1182h153v-1194q0 -51 21.5 -72t76.5 -21h33v-147h-33q-147 0 -199 58.5t-52 193.5z" />
<glyph unicode="m" horiz-adv-x="1732" d="M154 0h153v674q0 127 76 195.5t170 68.5q90 0 167 -67.5t77 -184.5v-686h153v674q0 127 76 195.5t170 68.5q90 0 167 -67.5t77 -184.5v-686h153v672q0 223 -129 318t-270 95q-88 0 -178 -38.5t-144 -126.5q-53 88 -142 126.5t-177 38.5q-57 0 -132 -32.5t-114 -96.5v101 h-153v-1057z" />
<glyph unicode="n" horiz-adv-x="1120" d="M154 0h153v674q0 131 79 197.5t181 66.5t181 -66.5t79 -197.5v-674h154v672q0 231 -133 322t-281 91q-72 0 -146.5 -32.5t-113.5 -96.5v101h-153v-1057z" />
<glyph unicode="o" horiz-adv-x="1077" d="M125 393q0 -231 133 -322t281 -91q147 0 280 91t133 322v279q0 231 -133 322t-280 91t-280.5 -91t-133.5 -322v-279zM279 391v283q0 131 78.5 197.5t181.5 66.5q102 0 181 -66.5t79 -197.5v-283q0 -131 -79 -197.5t-181 -66.5t-181 66.5t-79 197.5z" />
<glyph unicode="p" horiz-adv-x="1105" d="M154 -377h153v486q39 -63 114 -96t146 -33q147 0 280.5 91t133.5 322v279q0 231 -133 322t-281 91q-72 0 -146.5 -32.5t-113.5 -96.5v101h-153v-1434zM307 391v283q0 131 79 197.5t181 66.5t181 -66.5t79 -197.5v-283q0 -131 -78.5 -197.5t-181.5 -66.5q-102 0 -181 66.5 t-79 197.5z" />
<glyph unicode="q" horiz-adv-x="1105" d="M125 393q0 -231 133 -322t281 -91q72 0 146.5 32.5t113.5 96.5v-486h153v1434h-153v-101q-39 63 -114 96t-146 33q-147 0 -280.5 -91t-133.5 -322v-279zM279 391v283q0 131 78.5 197.5t181.5 66.5q102 0 181 -66.5t79 -197.5v-283q0 -131 -79 -197.5t-181 -66.5 t-181 66.5t-79 197.5z" />
<glyph unicode="r" horiz-adv-x="669" d="M154 0h153v664q0 131 79 197.5t181 66.5h68v147h-68q-72 0 -146.5 -32.5t-113.5 -96.5v111h-153v-1057z" />
<glyph unicode="s" horiz-adv-x="964" d="M80 338q12 -190 135 -274t289 -84q160 0 266.5 69.5t106.5 224.5q0 145 -76 215t-195 99l-198 49q-63 14 -104.5 48t-41.5 99q0 72 56.5 113t142.5 41q98 0 157.5 -49t73.5 -141h158q-12 176 -119.5 256.5t-267.5 80.5q-145 0 -251 -80.5t-106 -226.5q0 -141 87.5 -206.5 t173.5 -86.5l206 -51q88 -20 118 -62t30 -93q-2 -70 -54.5 -111t-162.5 -41q-104 0 -180 50t-86 161h-158z" />
<glyph unicode="t" horiz-adv-x="698" d="M53 909v148h150v239h153v-239h260v-148h-260v-669q0 -51 21.5 -72t77.5 -21h161v-147h-161q-147 0 -199.5 58.5t-52.5 193.5v657h-150z" />
<glyph unicode="u" horiz-adv-x="1107" d="M139 387q0 -233 139.5 -320t268.5 -87q68 0 141.5 32.5t112.5 96.5v-109h153v1057h-153v-666q0 -129 -79 -196.5t-175 -67.5q-94 0 -174 64.5t-80 205.5v660h-154v-670z" />
<glyph unicode="v" horiz-adv-x="958" d="M12 1057h164l303 -858l303 858h164l-381 -1057h-172z" />
<glyph unicode="w" horiz-adv-x="1400" d="M27 1057l278 -1057h160l235 829l236 -829h160l278 1057h-160l-204 -824l-234 824h-151l-234 -824l-205 824h-159z" />
<glyph unicode="x" horiz-adv-x="970" d="M31 0h174l280 428l281 -428h174l-358 543l342 514h-179l-260 -391l-260 391h-178l342 -514z" />
<glyph unicode="y" horiz-adv-x="958" d="M12 1057l387 -1073l-55 -152q-8 -27 -25.5 -44t-66.5 -17h-78v-148h59q100 2 156.5 24.5t77.5 84.5l479 1325h-164l-303 -858l-303 858h-164z" />
<glyph unicode="z" horiz-adv-x="954" d="M80 0h797v147h-611l596 762v148h-768v-148h582l-596 -762v-147z" />
<glyph unicode="{" horiz-adv-x="626" d="M111 535h45q63 0 84.5 -26t21.5 -79v-412q0 -135 52.5 -193t199.5 -58h33v131h-45q-63 0 -85 25.5t-22 78.5v412q0 63 -11 111t-56 75q45 27 56 75t11 111v412q0 53 21.5 79t85.5 26h45v131h-33q-147 0 -199.5 -58.5t-52.5 -193.5v-412q0 -53 -21.5 -78.5t-84.5 -25.5 h-45v-131z" />
<glyph unicode="|" horiz-adv-x="460" d="M164 -205h133v1639h-133v-1639z" />
<glyph unicode="}" horiz-adv-x="626" d="M80 -102h45q63 0 84.5 25.5t21.5 78.5v412q0 63 11.5 111t56.5 75q-45 27 -56.5 75t-11.5 111v412q0 53 -21.5 79t-84.5 26h-45v131h33q147 0 199.5 -58.5t52.5 -193.5v-412q0 -53 21.5 -78.5t84.5 -25.5h45v-131h-45q-63 0 -84.5 -26t-21.5 -79v-412q0 -135 -52.5 -193 t-199.5 -58h-33v131z" />
<glyph unicode="~" horiz-adv-x="1073" d="M123 555l86 -94q55 51 94 72.5t78 21.5q76 0 135 -47t164 -47q57 0 130 28.5t140 104.5l-86 94q-55 -51 -94 -72.5t-78 -21.5q-76 0 -135 47t-164 47q-57 0 -130 -28.5t-140 -104.5z" />
<glyph unicode="&#xa1;" horiz-adv-x="501" d="M143 842h215v215h-215v-215zM174 -377h154v1004h-154v-1004z" />
<glyph unicode="&#xa2;" horiz-adv-x="1075" d="M135 393q0 -217 116 -309t253 -102v-187h88v187q129 10 241.5 91t127.5 269h-156q-14 -94 -74.5 -147.5t-138.5 -65.5v805q78 -10 138.5 -63.5t74.5 -147.5h156q-14 188 -127 269t-242 91v187h-88v-187q-137 -12 -253 -105t-116 -306v-279zM289 391v283q0 117 63.5 182.5 t151.5 77.5v-805q-88 14 -151.5 79.5t-63.5 182.5z" />
<glyph unicode="&#xa3;" horiz-adv-x="1204" d="M133 0h959v147h-697q14 16 18.5 40t4.5 65v412h520v108h-520v270q0 131 78.5 198t181.5 67q102 0 181 -66.5t79 -198.5v-2h154q0 231 -133.5 322.5t-280.5 91.5t-280.5 -91t-133.5 -323v-268h-131v-108h131v-426q0 -51 -21.5 -71t-76.5 -20h-33v-147z" />
<glyph unicode="&#xa4;" horiz-adv-x="1468" d="M133 172l78 -78l174 174q70 -57 160 -91t190 -34q98 0 188.5 34t159.5 91l174 -174l78 78l-174 172q57 72 92 162t35 190t-34.5 190.5t-92.5 160.5l174 174l-78 77l-174 -174q-70 57 -159.5 91t-188.5 34q-100 0 -190 -33.5t-160 -93.5l-174 176l-78 -77l174 -174 q-57 -72 -91 -161t-34 -190q0 -100 34 -190t91 -160zM330 696q0 166 119.5 286t285.5 120t286 -120t120 -286t-120 -285.5t-286 -119.5t-285.5 119.5t-119.5 285.5z" />
<glyph unicode="&#xa5;" horiz-adv-x="1202" d="M49 1434h170l383 -699l381 699h170l-416 -754h277v-109h-336v-176h336v-108h-336v-287h-154v287h-336v108h336v176h-336v109h277z" />
<glyph unicode="&#xa6;" horiz-adv-x="460" d="M164 -205h133v694h-133v-694zM164 739h133v695h-133v-695z" />
<glyph unicode="&#xa7;" horiz-adv-x="1122" d="M127 559q0 -170 101.5 -239.5t203.5 -104.5l219 -74q57 -18 101.5 -71.5t44.5 -132.5q-2 -94 -67.5 -150.5t-168.5 -56.5q-104 0 -173 62.5t-75 166.5h-135q14 -170 115.5 -263t267.5 -93q152 0 261.5 88t109.5 241q0 94 -36 161t-87 110q86 35 136 107.5t50 187.5 q0 170 -101 239.5t-204 104.5l-219 73q-57 18 -101 71.5t-44 133.5q2 94 67.5 150.5t167.5 56.5q98 0 165 -52t81 -157h135q-20 174 -123.5 255t-257.5 81q-152 0 -261.5 -88t-109.5 -242q0 -94 35 -161.5t86 -108.5q-86 -35 -135 -107.5t-49 -187.5zM262 563 q2 104 70.5 152.5t159.5 52.5l165 -55q92 -31 147.5 -81t55.5 -138q-2 -104 -70.5 -153.5t-158.5 -51.5l-166 55q-92 31 -147.5 81t-55.5 138z" />
<glyph unicode="&#xa8;" horiz-adv-x="835" d="M137 1202h154v199h-154v-199zM545 1202h153v199h-153v-199z" />
<glyph unicode="&#xa9;" horiz-adv-x="1658" d="M92 717q0 -305 216 -521t521 -216t521.5 216t216.5 521t-216 521t-522 216q-305 0 -521 -216t-216 -521zM225 717q0 250 177.5 428t426.5 178q250 0 427.5 -178t177.5 -428t-177.5 -428t-427.5 -178t-427 178t-177 428zM516 582q0 -139 86 -222.5t227 -83.5 q133 0 219.5 76t94.5 205h-139q-8 -76 -62.5 -109.5t-112.5 -33.5q-61 0 -117.5 40t-56.5 128v270q0 88 56.5 127t117.5 39q57 0 111.5 -33t63.5 -108h139q-8 129 -94 204.5t-220 75.5q-141 0 -227 -84t-86 -221v-270z" />
<glyph unicode="&#xaa;" horiz-adv-x="661" d="M59 991q0 -94 62.5 -138t148.5 -44q59 0 105.5 17.5t75.5 52.5v-58h133v373q0 154 -90.5 205t-167.5 51q-74 0 -157 -42t-99 -165h135q14 39 45 59.5t76 20.5q51 0 84.5 -27.5t38.5 -83.5q-76 -4 -138.5 -11t-117.5 -23q-76 -25 -105 -79.5t-29 -107.5zM193 1004 q0 23 9 35t15 14q33 20 94.5 29.5t139.5 13.5v-25q0 -88 -55.5 -110.5t-104.5 -22.5q-45 0 -71.5 14.5t-26.5 51.5z" />
<glyph unicode="&#xab;" horiz-adv-x="958" d="M117 483v152l342 301v-178l-226 -199l226 -199v-178zM483 483v152l342 301v-178l-225 -199l225 -199v-178z" />
<glyph unicode="&#xac;" horiz-adv-x="1142" d="M158 508h694v-348h133v481h-827v-133z" />
<glyph unicode="&#xad;" horiz-adv-x="819" d="M113 508h594v133h-594v-133z" />
<glyph unicode="&#xae;" horiz-adv-x="1658" d="M92 717q0 -305 216 -521t521 -216t521.5 216t216.5 521t-216 521t-522 216q-305 0 -521 -216t-216 -521zM225 717q0 250 177.5 428t426.5 178q250 0 427.5 -178t177.5 -428t-177.5 -428t-427.5 -178t-427 178t-177 428zM545 289v856h348q123 0 194.5 -65.5t71.5 -182.5 q0 -98 -50 -159.5t-140 -80.5l217 -368h-156l-213 362h-133v-362h-139zM684 786h209q55 0 89 28t34 81q0 55 -34 83t-89 28h-209v-220z" />
<glyph unicode="&#xaf;" horiz-adv-x="872" d="M131 1235h610v133h-610v-133z" />
<glyph unicode="&#xb0;" horiz-adv-x="847" d="M104 1124q0 -131 94.5 -225t225.5 -94t225 94t94 225t-94 225.5t-225 94.5t-225.5 -94.5t-94.5 -225.5zM225 1124q0 82 58.5 141.5t140.5 59.5t140.5 -59.5t58.5 -141.5t-58.5 -141t-140.5 -59t-140.5 59t-58.5 141z" />
<glyph unicode="&#xb1;" horiz-adv-x="1142" d="M158 0h827v133h-827v-133zM158 629h352v-295h133v295h342v133h-342v295h-133v-295h-352v-133z" />
<glyph unicode="&#xb2;" horiz-adv-x="632" d="M55 821h516v129h-333l221 228q63 63 87.5 113t24.5 116q0 154 -90 206t-168 52t-168 -52t-90 -206v-10h133v8q0 68 34 99.5t91 31.5t91 -31.5t34 -101.5q0 -35 -17.5 -65.5t-62.5 -75.5l-303 -312v-129z" />
<glyph unicode="&#xb3;" horiz-adv-x="638" d="M53 1059h133q2 -61 39 -91t92 -30q53 0 87 28.5t34 86.5q0 57 -36.5 90t-90.5 33h-71v120h71q61 0 94 32t33 83q0 53 -34.5 89t-92.5 36q-55 0 -89 -29.5t-36 -91.5h-133q2 147 92.5 198.5t165.5 51.5q78 0 169 -56.5t91 -197.5q0 -57 -26.5 -104t-71.5 -70 q45 -25 71.5 -77t26.5 -107q0 -135 -80.5 -189.5t-168.5 -54.5q-82 0 -174.5 50t-94.5 200z" />
<glyph unicode="&#xb4;" horiz-adv-x="622" d="M135 1169h137l242 265h-221z" />
<glyph unicode="&#xb5;" horiz-adv-x="1122" d="M154 -377h153v486q39 -63 113 -96t141 -33q68 0 141.5 32.5t112.5 96.5v-109h154v1057h-154v-666q0 -129 -79 -196.5t-175 -67.5t-175 67.5t-79 196.5v666h-153v-1434z" />
<glyph unicode="&#xb6;" d="M68 1024q0 -168 119.5 -289t287.5 -121h21v-792h133v1481h225v-1481h131v1612h-510q-168 0 -287.5 -122t-119.5 -288z" />
<glyph unicode="&#xb7;" horiz-adv-x="583" d="M184 487h215v215h-215v-215z" />
<glyph unicode="&#xb8;" horiz-adv-x="548" d="M113 -324h200l78 324h-133z" />
<glyph unicode="&#xb9;" horiz-adv-x="444" d="M53 1343l160 138v-660h133v832h-133l-160 -137v-173z" />
<glyph unicode="&#xba;" horiz-adv-x="657" d="M70 1067q0 -154 90 -206t170 -52q78 0 168 52t90 206v127q0 154 -90 205t-168 51q-80 0 -170 -51t-90 -205v-127zM203 1071v119q0 68 34.5 100.5t92.5 32.5q57 0 91 -33t34 -100v-119q0 -70 -34 -101.5t-91 -31.5t-92 31.5t-35 101.5z" />
<glyph unicode="&#xbb;" horiz-adv-x="958" d="M133 182l342 301v152l-342 301v-178l225 -199l-225 -199v-178zM500 182l342 301v152l-342 301v-178l225 -199l-225 -199v-178z" />
<glyph unicode="&#xbc;" horiz-adv-x="1720" d="M252 1124l160 138v-660h133v832h-133l-160 -138v-172zM295 0h145l985 1434h-145zM1028 201h367v-201h133v201h88v129h-88v501h-133l-367 -501v-129zM1190 330l205 282v-282h-205z" />
<glyph unicode="&#xbd;" horiz-adv-x="1720" d="M252 1124l160 138v-660h133v832h-133l-160 -138v-172zM295 0h145l985 1434h-145zM1063 0h516v129h-334l221 227q63 63 88 113.5t25 116.5q0 154 -90 206t-168 52t-168 -52.5t-90 -205.5v-11h133v9q0 68 34 99.5t91 31.5t91 -32t34 -101q0 -35 -17.5 -66t-62.5 -76 l-303 -311v-129z" />
<glyph unicode="&#xbe;" horiz-adv-x="1720" d="M139 840h133q2 -61 39 -91t92 -30q53 0 87 28.5t34 86.5q0 57 -36.5 89.5t-90.5 32.5h-71v121h71q61 0 94 32t33 83q0 53 -34.5 89t-92.5 36q-55 0 -89 -30t-36 -91h-133q2 147 92.5 198.5t165.5 51.5q78 0 169 -56.5t91 -197.5q0 -57 -26.5 -104.5t-71.5 -69.5 q45 -25 71.5 -77t26.5 -107q0 -135 -80.5 -189.5t-168.5 -54.5q-82 0 -174.5 50t-94.5 200zM295 0h145l985 1434h-145zM1028 201h367v-201h133v201h88v129h-88v501h-133l-367 -501v-129zM1190 330l205 282v-282h-205z" />
<glyph unicode="&#xbf;" horiz-adv-x="991" d="M98 16q0 -231 133.5 -322t280.5 -91t280.5 91t133.5 322v17h-154v-19q0 -131 -79 -197.5t-181 -66.5t-181 66.5t-79 197.5q0 70 32.5 126.5t63.5 84.5l123 113q61 57 90 108.5t29 135.5v45h-154v-45q0 -45 -15 -76t-59 -70l-122 -112q-53 -49 -97.5 -133.5t-44.5 -174.5z M406 842h215v215h-215v-215z" />
<glyph unicode="&#xc0;" d="M29 0h159l131 403h521l131 -403h159l-460 1434h-181zM303 1749h225l189 -223h-152zM367 549l213 665l213 -665h-426z" />
<glyph unicode="&#xc1;" d="M29 0h159l131 403h521l131 -403h159l-460 1434h-181zM367 549l213 665l213 -665h-426zM442 1526h152l262 223h-225z" />
<glyph unicode="&#xc2;" d="M29 0h159l131 403h521l131 -403h159l-460 1434h-181zM256 1526l256 223h135l256 -223h-203l-120 104l-121 -104h-203zM367 549l213 665l213 -665h-426z" />
<glyph unicode="&#xc3;" d="M29 0h159l131 403h521l131 -403h159l-460 1434h-181zM254 1536h133q10 37 31.5 55.5t48.5 18.5q12 0 25.5 -4t27.5 -13l62 -32q25 -14 52.5 -21.5t59.5 -7.5q76 0 134.5 59.5t76.5 149.5h-133q-10 -37 -31.5 -55.5t-48.5 -18.5q-12 0 -25.5 4t-27.5 12l-61 33 q-25 14 -52.5 21.5t-60.5 7.5q-76 0 -134.5 -59.5t-76.5 -149.5zM367 549l213 665l213 -665h-426z" />
<glyph unicode="&#xc4;" d="M29 0h159l131 403h521l131 -403h159l-460 1434h-181zM299 1538h158v199h-158v-199zM367 549l213 665l213 -665h-426zM702 1538h158v199h-158v-199z" />
<glyph unicode="&#xc5;" d="M29 0h159l131 403h521l131 -403h159l-460 1434h-181zM367 549l213 665l213 -665h-426zM428 1636q0 -63 44 -107t108 -44q63 0 108 44t45 107t-45 108.5t-108 45.5t-107.5 -45t-44.5 -109zM526 1636q0 20 16.5 37t37.5 17q20 0 36.5 -16.5t16.5 -37.5q0 -20 -16.5 -36.5 t-36.5 -16.5t-37 16.5t-17 36.5z" />
<glyph unicode="&#xc6;" horiz-adv-x="1718" d="M14 0h168l185 403h405v-403h815v156h-657v491h657v156h-657v475h657v156h-913zM434 549l338 735v-735h-338z" />
<glyph unicode="&#xc7;" horiz-adv-x="1144" d="M121 465q0 -207 110.5 -335t290.5 -146l-127 -308h205l74 312q160 25 260 139.5t110 296.5h-157q-12 -141 -98.5 -215t-204.5 -74q-127 0 -216 84t-89 246v504q0 162 89 245.5t216 83.5q119 0 204.5 -73.5t98.5 -214.5h157q-12 207 -138 325.5t-322 118.5 q-205 0 -334 -130t-129 -355v-504z" />
<glyph unicode="&#xc8;" horiz-adv-x="1110" d="M164 0h815v156h-657v491h657v156h-657v475h657v156h-815v-1434zM295 1749h225l189 -223h-152z" />
<glyph unicode="&#xc9;" horiz-adv-x="1110" d="M164 0h815v156h-657v491h657v156h-657v475h657v156h-815v-1434zM434 1526h152l262 223h-225z" />
<glyph unicode="&#xca;" horiz-adv-x="1110" d="M164 0h815v156h-657v491h657v156h-657v475h657v156h-815v-1434zM248 1526l256 223h135l256 -223h-203l-121 104l-120 -104h-203z" />
<glyph unicode="&#xcb;" horiz-adv-x="1110" d="M164 0h815v156h-657v491h657v156h-657v475h657v156h-815v-1434zM291 1538h158v199h-158v-199zM694 1538h158v199h-158v-199z" />
<glyph unicode="&#xcc;" horiz-adv-x="485" d="M-35 1749h225l189 -223h-152zM164 0h158v1434h-158v-1434z" />
<glyph unicode="&#xcd;" horiz-adv-x="485" d="M104 1526h152l262 223h-225zM164 0h158v1434h-158v-1434z" />
<glyph unicode="&#xce;" horiz-adv-x="485" d="M-82 1526l256 223h135l256 -223h-203l-120 104l-121 -104h-203zM164 0h158v1434h-158v-1434z" />
<glyph unicode="&#xcf;" horiz-adv-x="485" d="M-39 1538h158v199h-158v-199zM164 0h158v1434h-158v-1434zM365 1538h157v199h-157v-199z" />
<glyph unicode="&#xd0;" horiz-adv-x="1232" d="M43 662h143v-662h463q205 0 334 130t129 355v463q0 225 -129 355.5t-334 130.5h-463v-660h-143v-112zM344 156v506h305v112h-305v504h305q127 -2 216 -85t89 -245v-463q0 -162 -89 -245.5t-216 -83.5h-305z" />
<glyph unicode="&#xd1;" horiz-adv-x="1253" d="M164 0h158v1128l610 -1128h158v1434h-158v-1129l-610 1129h-158v-1434zM301 1536h133q10 37 31.5 55.5t48.5 18.5q12 0 25.5 -4t27.5 -13l62 -32q25 -14 52.5 -21.5t59.5 -7.5q76 0 134.5 59.5t76.5 149.5h-133q-10 -37 -31.5 -55.5t-48.5 -18.5q-12 0 -25.5 4t-27.5 12 l-61 33q-25 14 -52.5 21.5t-60.5 7.5q-76 0 -134.5 -59.5t-76.5 -149.5z" />
<glyph unicode="&#xd2;" horiz-adv-x="1167" d="M121 465q0 -225 129 -355t334 -130t334 130t129 355v504q0 225 -129.5 355t-333.5 130q-205 0 -334 -130t-129 -355v-504zM279 465v504q0 162 89 245.5t216 83.5t216 -84t89 -245v-504q0 -162 -89 -246t-216 -84t-216 84t-89 246zM307 1749h225l189 -223h-152z" />
<glyph unicode="&#xd3;" horiz-adv-x="1167" d="M121 465q0 -225 129 -355t334 -130t334 130t129 355v504q0 225 -129.5 355t-333.5 130q-205 0 -334 -130t-129 -355v-504zM279 465v504q0 162 89 245.5t216 83.5t216 -84t89 -245v-504q0 -162 -89 -246t-216 -84t-216 84t-89 246zM446 1526h152l262 223h-225z" />
<glyph unicode="&#xd4;" horiz-adv-x="1167" d="M121 465q0 -225 129 -355t334 -130t334 130t129 355v504q0 225 -129.5 355t-333.5 130q-205 0 -334 -130t-129 -355v-504zM260 1526l256 223h135l256 -223h-202l-121 104l-121 -104h-203zM279 465v504q0 162 89 245.5t216 83.5t216 -84t89 -245v-504q0 -162 -89 -246 t-216 -84t-216 84t-89 246z" />
<glyph unicode="&#xd5;" horiz-adv-x="1167" d="M121 465q0 -225 129 -355t334 -130t334 130t129 355v504q0 225 -129.5 355t-333.5 130q-205 0 -334 -130t-129 -355v-504zM258 1536h133q10 37 31.5 55.5t48.5 18.5q12 0 25.5 -4t27.5 -13l62 -32q25 -14 52.5 -21.5t59.5 -7.5q76 0 134.5 59.5t76.5 149.5h-133 q-10 -37 -31.5 -55.5t-48.5 -18.5q-12 0 -25.5 4t-27.5 12l-61 33q-25 14 -52.5 21.5t-60.5 7.5q-76 0 -134.5 -59.5t-76.5 -149.5zM279 465v504q0 162 89 245.5t216 83.5t216 -84t89 -245v-504q0 -162 -89 -246t-216 -84t-216 84t-89 246z" />
<glyph unicode="&#xd6;" horiz-adv-x="1167" d="M121 465q0 -225 129 -355t334 -130t334 130t129 355v504q0 225 -129.5 355t-333.5 130q-205 0 -334 -130t-129 -355v-504zM279 465v504q0 162 89 245.5t216 83.5t216 -84t89 -245v-504q0 -162 -89 -246t-216 -84t-216 84t-89 246zM303 1538h158v199h-158v-199zM707 1538 h157v199h-157v-199z" />
<glyph unicode="&#xd7;" horiz-adv-x="1142" d="M143 909l334 -336l-332 -331l95 -95l331 332l334 -332l94 95l-333 331l335 336l-94 95l-336 -336l-333 336z" />
<glyph unicode="&#xd8;" horiz-adv-x="1179" d="M127 8l98 -55l68 121q57 -45 133 -69.5t164 -24.5q205 0 334 130t129 355v504q0 90 -22.5 167.5t-63.5 135.5l86 153l-97 58l-69 -125q-57 47 -133 71.5t-164 24.5q-205 0 -334 -130t-129 -355v-504q0 -92 22.5 -169t63.5 -136zM285 465v504q0 162 89 245.5t216 83.5 q63 0 118.5 -21.5t96.5 -62.5l-500 -888q-10 31 -15 65.5t-5 73.5zM375 217l497 889q10 -31 16.5 -64.5t6.5 -72.5v-504q0 -162 -89 -246t-216 -84q-63 0 -118.5 21.5t-96.5 60.5z" />
<glyph unicode="&#xd9;" horiz-adv-x="1216" d="M145 465q0 -225 129 -355t334 -130t334 130t129 355v969h-158v-969q0 -162 -89 -246t-216 -84t-216 84t-89 246v969h-158v-969zM332 1749h225l188 -223h-151z" />
<glyph unicode="&#xda;" horiz-adv-x="1216" d="M145 465q0 -225 129 -355t334 -130t334 130t129 355v969h-158v-969q0 -162 -89 -246t-216 -84t-216 84t-89 246v969h-158v-969zM471 1526h152l262 223h-226z" />
<glyph unicode="&#xdb;" horiz-adv-x="1216" d="M145 465q0 -225 129 -355t334 -130t334 130t129 355v969h-158v-969q0 -162 -89 -246t-216 -84t-216 84t-89 246v969h-158v-969zM285 1526l256 223h135l256 -223h-203l-121 104l-121 -104h-202z" />
<glyph unicode="&#xdc;" horiz-adv-x="1216" d="M145 465q0 -225 129 -355t334 -130t334 130t129 355v969h-158v-969q0 -162 -89 -246t-216 -84t-216 84t-89 246v969h-158v-969zM326 1538h157v199h-157v-199zM729 1538h158v199h-158v-199z" />
<glyph unicode="&#xdd;" horiz-adv-x="1116" d="M6 1434h172l381 -695l379 695h172l-473 -865v-569h-158v571zM422 1526h151l263 223h-226z" />
<glyph unicode="&#xde;" horiz-adv-x="1128" d="M164 0h158v279h305q248 0 355.5 123.5t107.5 314.5q0 190 -108 314t-355 124h-305v279h-158v-1434zM322 434v565h305q166 0 233.5 -82.5t67.5 -199.5t-67.5 -200t-233.5 -83h-305z" />
<glyph unicode="&#xdf;" horiz-adv-x="1079" d="M154 0h153v1075q0 117 53.5 174.5t155.5 57.5t155.5 -57.5t53.5 -174.5t-53.5 -173t-155.5 -56h-43v-148h43h14h9q156 0 222 -90t66 -194q0 -121 -54 -204t-195 -83q-31 0 -57.5 4t-47.5 12v-153q25 -4 51.5 -7t53.5 -3q178 0 290.5 110.5t112.5 323.5q0 133 -53.5 228 t-147.5 146q45 43 72 114t27 173q0 215 -107.5 297t-255.5 82q-147 0 -254.5 -82t-107.5 -297v-1075z" />
<glyph unicode="&#xe0;" horiz-adv-x="1079" d="M106 293q0 -162 108 -237.5t243 -75.5q106 0 192 31.5t137 97.5v-109h154v672q0 231 -133 322t-281 91q-137 0 -264 -77.5t-147 -274.5h157q18 102 91 153.5t163 51.5q102 0 181 -66.5t79 -197.5v-19q-133 -8 -246.5 -20t-203.5 -39q-137 -39 -183.5 -131t-46.5 -172z M260 297q0 45 17.5 82t74.5 70q53 29 157.5 43t276.5 26v-137q0 -123 -87 -188.5t-210 -65.5q-117 0 -173 49t-56 121zM262 1434h221l158 -265h-137z" />
<glyph unicode="&#xe1;" horiz-adv-x="1079" d="M106 293q0 -162 108 -237.5t243 -75.5q106 0 192 31.5t137 97.5v-109h154v672q0 231 -133 322t-281 91q-137 0 -264 -77.5t-147 -274.5h157q18 102 91 153.5t163 51.5q102 0 181 -66.5t79 -197.5v-19q-133 -8 -246.5 -20t-203.5 -39q-137 -39 -183.5 -131t-46.5 -172z M260 297q0 45 17.5 82t74.5 70q53 29 157.5 43t276.5 26v-137q0 -123 -87 -188.5t-210 -65.5q-117 0 -173 49t-56 121zM395 1169h137l242 265h-221z" />
<glyph unicode="&#xe2;" horiz-adv-x="1079" d="M106 293q0 -162 108 -237.5t243 -75.5q106 0 192 31.5t137 97.5v-109h154v672q0 231 -133 322t-281 91q-137 0 -264 -77.5t-147 -274.5h157q18 102 91 153.5t163 51.5q102 0 181 -66.5t79 -197.5v-19q-133 -8 -246.5 -20t-203.5 -39q-137 -39 -183.5 -131t-46.5 -172z M209 1169h182l141 146l142 -146h182l-256 265h-135zM260 297q0 45 17.5 82t74.5 70q53 29 157.5 43t276.5 26v-137q0 -123 -87 -188.5t-210 -65.5q-117 0 -173 49t-56 121z" />
<glyph unicode="&#xe3;" horiz-adv-x="1079" d="M106 293q0 -162 108 -237.5t243 -75.5q106 0 192 31.5t137 97.5v-109h154v672q0 231 -133 322t-281 91q-137 0 -264 -77.5t-147 -274.5h157q18 102 91 153.5t163 51.5q102 0 181 -66.5t79 -197.5v-19q-133 -8 -246.5 -20t-203.5 -39q-137 -39 -183.5 -131t-46.5 -172z M207 1200h119q8 33 32.5 55.5t51.5 22.5q18 0 34.5 -5t28.5 -13l62 -35q25 -14 52 -21.5t60 -7.5q76 0 134.5 59.5t76.5 149.5h-119q-8 -33 -32.5 -55.5t-51.5 -22.5q-18 0 -34.5 5t-28.5 14l-62 34q-25 14 -52 21.5t-60 7.5q-76 0 -134.5 -59.5t-76.5 -149.5zM260 297 q0 45 17.5 82t74.5 70q53 29 157.5 43t276.5 26v-137q0 -123 -87 -188.5t-210 -65.5q-117 0 -173 49t-56 121z" />
<glyph unicode="&#xe4;" horiz-adv-x="1079" d="M106 293q0 -162 108 -237.5t243 -75.5q106 0 192 31.5t137 97.5v-109h154v672q0 231 -133 322t-281 91q-137 0 -264 -77.5t-147 -274.5h157q18 102 91 153.5t163 51.5q102 0 181 -66.5t79 -197.5v-19q-133 -8 -246.5 -20t-203.5 -39q-137 -39 -183.5 -131t-46.5 -172z M252 1202h154v199h-154v-199zM260 297q0 45 17.5 82t74.5 70q53 29 157.5 43t276.5 26v-137q0 -123 -87 -188.5t-210 -65.5q-117 0 -173 49t-56 121zM659 1202h154v199h-154v-199z" />
<glyph unicode="&#xe5;" horiz-adv-x="1079" d="M106 293q0 -162 108 -237.5t243 -75.5q106 0 192 31.5t137 97.5v-109h154v672q0 231 -133 322t-281 91q-137 0 -264 -77.5t-147 -274.5h157q18 102 91 153.5t163 51.5q102 0 181 -66.5t79 -197.5v-19q-133 -8 -246.5 -20t-203.5 -39q-137 -39 -183.5 -131t-46.5 -172z M260 297q0 45 17.5 82t74.5 70q53 29 157.5 43t276.5 26v-137q0 -123 -87 -188.5t-210 -65.5q-117 0 -173 49t-56 121zM385 1300q0 -63 44 -107t108 -44q63 0 108 44t45 107t-45 108.5t-108 45.5t-107.5 -45t-44.5 -109zM479 1300q0 23 17.5 40.5t40.5 17.5t40 -17.5 t17 -40.5t-17.5 -40t-39.5 -17q-23 0 -40.5 17.5t-17.5 39.5z" />
<glyph unicode="&#xe6;" horiz-adv-x="1728" d="M106 293q0 -162 108 -237.5t243 -75.5q121 0 219 44t155 154q55 -109 160 -153.5t209 -44.5q137 0 264 77.5t148 274.5h-158q-18 -102 -91 -153.5t-163 -51.5q-102 0 -181 66.5t-79 197.5v103h674v178q0 231 -133 322t-281 91q-94 0 -187 -37.5t-151 -132.5 q-63 98 -153.5 134t-182.5 36q-137 0 -264 -77.5t-147 -274.5h157q18 102 91 153.5t163 51.5q100 0 178 -63.5t82 -188.5v-31q-133 -8 -246.5 -20t-203.5 -39q-137 -39 -183.5 -131t-46.5 -172zM260 297q0 45 17.5 82t74.5 70q53 29 157.5 43t276.5 26v-137 q0 -123 -87 -188.5t-210 -65.5q-117 0 -173 49t-56 121zM940 635v39q0 131 79 197.5t181 66.5t181 -66.5t79 -197.5v-39h-520z" />
<glyph unicode="&#xe7;" horiz-adv-x="1054" d="M125 393q0 -213 113.5 -306t248.5 -105l-137 -306h201l74 310q117 18 214 101t111 255h-155q-14 -106 -89 -160.5t-167 -54.5q-102 0 -181 66.5t-79 197.5v283q0 131 78.5 197.5t181.5 66.5q92 0 166.5 -54.5t89.5 -160.5h155q-16 203 -144 282.5t-267 79.5 q-147 0 -280.5 -91t-133.5 -322v-279z" />
<glyph unicode="&#xe8;" horiz-adv-x="1067" d="M125 393q0 -231 133 -322t281 -91q137 0 264 77.5t147 274.5h-157q-18 -102 -91 -153.5t-163 -51.5q-102 0 -181 66.5t-79 197.5v103h673v178q0 231 -133 322t-280 91t-280.5 -91t-133.5 -322v-279zM279 635v39q0 131 78.5 197.5t181.5 66.5q102 0 181 -66.5t79 -197.5 v-39h-520zM287 1434h221l158 -265h-138z" />
<glyph unicode="&#xe9;" horiz-adv-x="1067" d="M125 393q0 -231 133 -322t281 -91q137 0 264 77.5t147 274.5h-157q-18 -102 -91 -153.5t-163 -51.5q-102 0 -181 66.5t-79 197.5v103h673v178q0 231 -133 322t-280 91t-280.5 -91t-133.5 -322v-279zM279 635v39q0 131 78.5 197.5t181.5 66.5q102 0 181 -66.5t79 -197.5 v-39h-520zM412 1169h137l242 265h-222z" />
<glyph unicode="&#xea;" horiz-adv-x="1067" d="M125 393q0 -231 133 -322t281 -91q137 0 264 77.5t147 274.5h-157q-18 -102 -91 -153.5t-163 -51.5q-102 0 -181 66.5t-79 197.5v103h673v178q0 231 -133 322t-280 91t-280.5 -91t-133.5 -322v-279zM215 1169h182l142 146l141 -146h182l-256 265h-135zM279 635v39 q0 131 78.5 197.5t181.5 66.5q102 0 181 -66.5t79 -197.5v-39h-520z" />
<glyph unicode="&#xeb;" horiz-adv-x="1067" d="M125 393q0 -231 133 -322t281 -91q137 0 264 77.5t147 274.5h-157q-18 -102 -91 -153.5t-163 -51.5q-102 0 -181 66.5t-79 197.5v103h673v178q0 231 -133 322t-280 91t-280.5 -91t-133.5 -322v-279zM258 1202h154v199h-154v-199zM279 635v39q0 131 78.5 197.5t181.5 66.5 q102 0 181 -66.5t79 -197.5v-39h-520zM666 1202h153v199h-153v-199z" />
<glyph unicode="&#xec;" horiz-adv-x="460" d="M-23 1434h222l157 -265h-137zM154 0h153v1057h-153v-1057z" />
<glyph unicode="&#xed;" horiz-adv-x="460" d="M102 1169h138l241 265h-221zM154 0h153v1057h-153v-1057z" />
<glyph unicode="&#xee;" horiz-adv-x="460" d="M-94 1169h182l141 146l142 -146h182l-256 265h-135zM154 0h153v1057h-153v-1057z" />
<glyph unicode="&#xef;" horiz-adv-x="460" d="M-51 1202h153v199h-153v-199zM154 0h153v1057h-153v-1057zM356 1202h154v199h-154v-199z" />
<glyph unicode="&#xf0;" horiz-adv-x="1077" d="M125 393q0 -231 133 -322t281 -91q147 0 280 91t133 322v279q0 82 -19.5 147.5t-51.5 110.5l-199 272h102v109h-182l-90 123h-182l88 -123h-176v-109h256l86 -119q-10 0 -22.5 1t-22.5 1q-147 0 -280.5 -91t-133.5 -322v-279zM279 391v283q0 131 78.5 197.5t181.5 66.5 q102 0 181 -66.5t79 -197.5v-283q0 -131 -79 -197.5t-181 -66.5t-181 66.5t-79 197.5z" />
<glyph unicode="&#xf1;" horiz-adv-x="1120" d="M154 0h153v674q0 131 79 197.5t181 66.5t181 -66.5t79 -197.5v-674h154v672q0 231 -133 322t-281 91q-72 0 -146.5 -32.5t-113.5 -96.5v101h-153v-1057zM242 1200h118q8 33 33 55.5t51 22.5q18 0 35 -5t29 -13l61 -35q25 -14 52.5 -21.5t60.5 -7.5q76 0 134 59.5 t77 149.5h-119q-8 -33 -32.5 -55.5t-51.5 -22.5q-18 0 -34.5 5t-28.5 14l-62 34q-25 14 -52.5 21.5t-59.5 7.5q-76 0 -134.5 -59.5t-76.5 -149.5z" />
<glyph unicode="&#xf2;" horiz-adv-x="1077" d="M125 393q0 -231 133 -322t281 -91q147 0 280 91t133 322v279q0 231 -133 322t-280 91t-280.5 -91t-133.5 -322v-279zM279 391v283q0 131 78.5 197.5t181.5 66.5q102 0 181 -66.5t79 -197.5v-283q0 -131 -79 -197.5t-181 -66.5t-181 66.5t-79 197.5zM287 1434h221 l158 -265h-138z" />
<glyph unicode="&#xf3;" horiz-adv-x="1077" d="M125 393q0 -231 133 -322t281 -91q147 0 280 91t133 322v279q0 231 -133 322t-280 91t-280.5 -91t-133.5 -322v-279zM279 391v283q0 131 78.5 197.5t181.5 66.5q102 0 181 -66.5t79 -197.5v-283q0 -131 -79 -197.5t-181 -66.5t-181 66.5t-79 197.5zM412 1169h137l242 265 h-222z" />
<glyph unicode="&#xf4;" horiz-adv-x="1077" d="M125 393q0 -231 133 -322t281 -91q147 0 280 91t133 322v279q0 231 -133 322t-280 91t-280.5 -91t-133.5 -322v-279zM215 1169h182l142 146l141 -146h182l-256 265h-135zM279 391v283q0 131 78.5 197.5t181.5 66.5q102 0 181 -66.5t79 -197.5v-283q0 -131 -79 -197.5 t-181 -66.5t-181 66.5t-79 197.5z" />
<glyph unicode="&#xf5;" horiz-adv-x="1077" d="M125 393q0 -231 133 -322t281 -91q147 0 280 91t133 322v279q0 231 -133 322t-280 91t-280.5 -91t-133.5 -322v-279zM213 1200h119q8 33 32.5 55.5t51.5 22.5q18 0 34.5 -5t28.5 -13l62 -35q25 -14 52.5 -21.5t59.5 -7.5q76 0 134.5 59.5t76.5 149.5h-119 q-8 -33 -32.5 -55.5t-50.5 -22.5q-18 0 -35 5t-29 14l-61 34q-25 14 -52.5 21.5t-60.5 7.5q-76 0 -134.5 -59.5t-76.5 -149.5zM279 391v283q0 131 78.5 197.5t181.5 66.5q102 0 181 -66.5t79 -197.5v-283q0 -131 -79 -197.5t-181 -66.5t-181 66.5t-79 197.5z" />
<glyph unicode="&#xf6;" horiz-adv-x="1077" d="M125 393q0 -231 133 -322t281 -91q147 0 280 91t133 322v279q0 231 -133 322t-280 91t-280.5 -91t-133.5 -322v-279zM258 1202h154v199h-154v-199zM279 391v283q0 131 78.5 197.5t181.5 66.5q102 0 181 -66.5t79 -197.5v-283q0 -131 -79 -197.5t-181 -66.5t-181 66.5 t-79 197.5zM666 1202h153v199h-153v-199z" />
<glyph unicode="&#xf7;" horiz-adv-x="1142" d="M158 508h827v133h-827v-133zM465 188q0 -45 30.5 -75.5t75.5 -30.5t77 30.5t32 75.5t-32 77t-77 32t-75.5 -32t-30.5 -77zM465 958q0 -45 30.5 -75.5t75.5 -30.5t77 30.5t32 75.5t-32 77t-77 32t-75.5 -31.5t-30.5 -77.5z" />
<glyph unicode="&#xf8;" horiz-adv-x="1089" d="M131 10l90 -59l68 100q55 -39 122.5 -55t133.5 -16q147 0 280 91t133 322v279q0 86 -21.5 152.5t-55.5 113.5l77 117l-92 61l-67 -102q-57 39 -123 55t-131 16q-147 0 -280.5 -91t-133.5 -322v-279q0 -88 20.5 -153.5t57.5 -112.5zM285 391v283q0 131 78.5 197.5 t181.5 66.5q45 0 89 -13.5t79 -39.5l-406 -611q-10 25 -16 54.5t-6 62.5zM375 182l407 609q10 -25 16.5 -54.5t6.5 -62.5v-283q0 -131 -79 -197.5t-181 -66.5q-47 0 -91 14.5t-79 40.5z" />
<glyph unicode="&#xf9;" horiz-adv-x="1107" d="M139 387q0 -233 139.5 -320t268.5 -87q68 0 141.5 32.5t112.5 96.5v-109h153v1057h-153v-666q0 -129 -79 -196.5t-175 -67.5q-94 0 -174 64.5t-80 205.5v660h-154v-670zM295 1434h221l158 -265h-137z" />
<glyph unicode="&#xfa;" horiz-adv-x="1107" d="M139 387q0 -233 139.5 -320t268.5 -87q68 0 141.5 32.5t112.5 96.5v-109h153v1057h-153v-666q0 -129 -79 -196.5t-175 -67.5q-94 0 -174 64.5t-80 205.5v660h-154v-670zM420 1169h137l242 265h-221z" />
<glyph unicode="&#xfb;" horiz-adv-x="1107" d="M139 387q0 -233 139.5 -320t268.5 -87q68 0 141.5 32.5t112.5 96.5v-109h153v1057h-153v-666q0 -129 -79 -196.5t-175 -67.5q-94 0 -174 64.5t-80 205.5v660h-154v-670zM223 1169h183l141 146l141 -146h182l-256 265h-135z" />
<glyph unicode="&#xfc;" horiz-adv-x="1107" d="M139 387q0 -233 139.5 -320t268.5 -87q68 0 141.5 32.5t112.5 96.5v-109h153v1057h-153v-666q0 -129 -79 -196.5t-175 -67.5q-94 0 -174 64.5t-80 205.5v660h-154v-670zM266 1202h154v199h-154v-199zM674 1202h153v199h-153v-199z" />
<glyph unicode="&#xfd;" horiz-adv-x="958" d="M12 1057l387 -1073l-55 -152q-8 -27 -25.5 -44t-66.5 -17h-78v-148h59q100 2 156.5 24.5t77.5 84.5l479 1325h-164l-303 -858l-303 858h-164zM352 1169h137l242 265h-221z" />
<glyph unicode="&#xfe;" horiz-adv-x="1105" d="M154 -377h153v486q39 -63 114 -96t146 -33q147 0 280.5 91t133.5 322v279q0 231 -133 322t-281 91q-72 0 -146.5 -32.5t-113.5 -96.5v478h-153v-1811zM307 391v283q0 131 79 197.5t181 66.5t181 -66.5t79 -197.5v-283q0 -131 -78.5 -197.5t-181.5 -66.5q-102 0 -181 66.5 t-79 197.5z" />
<glyph unicode="&#xff;" horiz-adv-x="958" d="M12 1057l387 -1073l-55 -152q-8 -27 -25.5 -44t-66.5 -17h-78v-148h59q100 2 156.5 24.5t77.5 84.5l479 1325h-164l-303 -858l-303 858h-164zM199 1202h153v199h-153v-199zM606 1202h154v199h-154v-199z" />
<glyph unicode="&#x152;" horiz-adv-x="1835" d="M121 465q0 -225 129 -355t334 -130q106 0 181 32.5t124 87.5v-100h815v156h-657v491h657v156h-657v475h657v156h-815v-101q-49 55 -124 88t-181 33q-205 0 -334 -130t-129 -355v-504zM279 465v504q0 162 89 245.5t216 83.5t216 -84t89 -245v-504q0 -162 -89 -246 t-216 -84t-216 84t-89 246z" />
<glyph unicode="&#x153;" horiz-adv-x="1740" d="M125 393q0 -231 133 -322t281 -91q92 0 182 35.5t153 134.5q57 -94 150.5 -132t187.5 -38q137 0 264.5 77.5t147.5 274.5h-158q-18 -102 -90.5 -153.5t-163.5 -51.5q-102 0 -181 66.5t-79 197.5v103h674v178q0 231 -133 322t-281 91q-94 0 -187 -37.5t-151 -132.5 q-63 98 -153 134t-182 36q-147 0 -280.5 -91t-133.5 -322v-279zM279 391v283q0 131 78.5 197.5t181.5 66.5q102 0 181 -66.5t79 -197.5v-283q0 -131 -79 -197.5t-181 -66.5t-181 66.5t-79 197.5zM952 635v39q0 131 79 197.5t181 66.5t181.5 -66.5t79.5 -197.5v-39h-521z" />
<glyph unicode="&#x178;" horiz-adv-x="1116" d="M6 1434h172l381 -695l379 695h172l-473 -865v-569h-158v571zM279 1538h157v199h-157v-199zM682 1538h158v199h-158v-199z" />
<glyph unicode="&#x2c6;" horiz-adv-x="884" d="M119 1169h182l141 146l142 -146h182l-256 265h-135z" />
<glyph unicode="&#x2dc;" horiz-adv-x="901" d="M125 1200h119q8 33 32.5 55.5t51.5 22.5q18 0 34.5 -5t28.5 -13l62 -35q25 -14 52 -21.5t60 -7.5q76 0 134.5 59.5t76.5 149.5h-119q-8 -33 -32.5 -55.5t-51.5 -22.5q-18 0 -34.5 5t-28.5 14l-61 34q-25 14 -52.5 21.5t-60.5 7.5q-76 0 -134.5 -59.5t-76.5 -149.5z" />
<glyph unicode="&#x2000;" horiz-adv-x="895" />
<glyph unicode="&#x2001;" horiz-adv-x="1790" />
<glyph unicode="&#x2002;" horiz-adv-x="895" />
<glyph unicode="&#x2003;" horiz-adv-x="1790" />
<glyph unicode="&#x2004;" horiz-adv-x="596" />
<glyph unicode="&#x2005;" horiz-adv-x="447" />
<glyph unicode="&#x2006;" horiz-adv-x="298" />
<glyph unicode="&#x2007;" horiz-adv-x="298" />
<glyph unicode="&#x2008;" horiz-adv-x="223" />
<glyph unicode="&#x2009;" horiz-adv-x="358" />
<glyph unicode="&#x200a;" horiz-adv-x="99" />
<glyph unicode="&#x2010;" horiz-adv-x="819" d="M113 508h594v133h-594v-133z" />
<glyph unicode="&#x2011;" horiz-adv-x="819" d="M113 508h594v133h-594v-133z" />
<glyph unicode="&#x2012;" horiz-adv-x="819" d="M113 508h594v133h-594v-133z" />
<glyph unicode="&#x2013;" horiz-adv-x="1052" d="M113 508h827v133h-827v-133z" />
<glyph unicode="&#x2014;" horiz-adv-x="1665" d="M113 508h1439v133h-1439v-133z" />
<glyph unicode="&#x2018;" horiz-adv-x="493" d="M139 1026h215v215h-84l72 193h-131l-72 -193v-215z" />
<glyph unicode="&#x2019;" horiz-adv-x="493" d="M139 1219h84l-71 -193h131l71 193v215h-215v-215z" />
<glyph unicode="&#x201a;" horiz-adv-x="493" d="M139 0h84l-71 -193h131l71 193v215h-215v-215z" />
<glyph unicode="&#x201c;" horiz-adv-x="868" d="M139 1026h215v215h-84l72 193h-131l-72 -193v-215zM514 1026h215v215h-84l72 193h-131l-72 -193v-215z" />
<glyph unicode="&#x201d;" horiz-adv-x="868" d="M139 1219h84l-71 -193h131l71 193v215h-215v-215zM514 1219h84l-72 -193h131l72 193v215h-215v-215z" />
<glyph unicode="&#x201e;" horiz-adv-x="868" d="M139 0h84l-71 -193h131l71 193v215h-215v-215zM514 0h84l-72 -193h131l72 193v215h-215v-215z" />
<glyph unicode="&#x2022;" horiz-adv-x="1638" d="M475 713q0 -141 101.5 -242.5t242.5 -101.5t242.5 101t101.5 243q0 141 -101 242.5t-243 101.5q-141 0 -242.5 -101.5t-101.5 -242.5z" />
<glyph unicode="&#x2026;" horiz-adv-x="1603" d="M160 0h215v215h-215v-215zM694 0h215v215h-215v-215zM1229 0h215v215h-215v-215z" />
<glyph unicode="&#x202f;" horiz-adv-x="358" />
<glyph unicode="&#x2039;" horiz-adv-x="591" d="M117 483v152l342 301v-178l-226 -199l226 -199v-178z" />
<glyph unicode="&#x203a;" horiz-adv-x="591" d="M133 182l342 301v152l-342 301v-178l225 -199l-225 -199v-178z" />
<glyph unicode="&#x205f;" horiz-adv-x="447" />
<glyph unicode="&#x20ac;" horiz-adv-x="1193" d="M90 543l29 108h129v133h-158l27 109h131v76q0 225 129 355t334 130q117 0 212 -44t156 -126l-125 -94q-43 57 -106.5 87t-136.5 30q-127 0 -218.5 -86t-91.5 -252v-76h566l-27 -109h-539v-133h504l-28 -108h-476v-78q0 -166 91.5 -252t218.5 -86q74 0 137 29.5t106 87.5 l125 -94q-61 -82 -156.5 -126t-211.5 -44q-205 0 -334 130t-129 355v78h-158z" />
<glyph unicode="&#x2122;" horiz-adv-x="1525" d="M14 1303h236v-701h133v701h235v131h-604v-131zM727 602h133v567l166 -344h109l165 344v-567h132v832h-134l-219 -453l-219 453h-133v-832z" />
<glyph unicode="&#x25fc;" horiz-adv-x="1054" d="M0 0v1055h1055v-1055h-1055z" />
</font>
</defs>
</svg>
